<svg xmlns="http://www.w3.org/2000/svg" width="1024" height="1024" viewBox="0 0 1024 1024" version="1.1"><path d="M 730.500 138.874 C 724.445 141.644, 720.095 145.598, 686.500 178.865 C 669.450 195.749, 635.933 228.674, 612.017 252.031 C 588.102 275.389, 567.217 295.850, 565.606 297.500 C 550.146 313.339, 552.180 333.864, 571.433 356.328 C 575.595 361.183, 579 365.306, 579 365.491 C 579 365.675, 565.612 377.002, 549.250 390.662 C 514.458 419.708, 515 419.208, 515 422.300 C 515 427.974, 521.505 429.447, 526.335 424.866 C 529.167 422.181, 555.539 399.914, 563.485 393.500 C 581.124 379.259, 591.145 370.269, 591.659 368.224 C 592.352 365.460, 590.229 362.115, 579.137 348.500 C 569.862 337.115, 566.791 330.490, 566.619 321.500 C 566.530 316.862, 567.021 314.669, 568.779 311.839 C 570.029 309.826, 593.428 286.216, 620.776 259.373 C 648.124 232.531, 684 197.190, 700.500 180.838 C 730.857 150.753, 734.261 148, 741.100 148 C 745.047 148, 749.708 152.659, 753.486 160.382 C 757.973 169.552, 757.554 170.235, 732.249 195.028 C 720.287 206.748, 687.567 238.874, 659.539 266.418 C 631.510 293.963, 607.547 317.492, 606.289 318.705 C 605.030 319.917, 604 321.983, 604 323.295 C 604 327.826, 609.896 337.688, 615.963 343.305 C 621.987 348.882, 625.909 350.710, 628.609 349.199 C 629.452 348.727, 638.998 339.570, 649.821 328.850 C 665.876 312.948, 759.564 221.090, 774.500 206.606 C 780.380 200.904, 783.946 199.008, 788.800 199.004 C 795.226 198.998, 798.767 201.303, 801.566 207.315 C 804.422 213.448, 804.671 219.372, 802.250 223.551 C 800.714 226.202, 758.899 267.536, 676.741 347.615 C 659.222 364.692, 652 372.373, 652 373.931 C 652 376.635, 653.200 378.935, 657.659 384.776 C 664.956 394.336, 668.439 398.176, 671.029 399.515 C 673.377 400.729, 674.095 400.690, 676.772 399.201 C 679.485 397.692, 707.075 371.002, 783.500 295.952 C 816.782 263.269, 828.851 251.739, 831.849 249.761 C 833.357 248.767, 836.399 248.010, 838.905 248.007 C 842.717 248.001, 843.801 248.517, 846.967 251.845 C 853.621 258.840, 855.746 266.766, 852.585 272.800 C 851.807 274.285, 846.070 280.458, 839.835 286.517 C 808.866 316.616, 733.747 390.160, 712.500 411.183 C 699.300 424.243, 686.925 436.118, 685 437.571 C 679.567 441.671, 675.235 443.148, 668.529 443.187 C 660.917 443.231, 655.953 440.902, 648.866 433.963 C 641.855 427.098, 640.557 427.286, 629.420 436.769 C 624.426 441.021, 608.788 454.309, 594.670 466.298 C 568.034 488.916, 567.091 490.006, 570.328 494.434 C 572.167 496.949, 576.307 496.704, 579.789 493.875 C 581.396 492.569, 595.039 480.924, 610.106 467.999 C 625.173 455.073, 638.272 443.893, 639.216 443.154 C 640.711 441.984, 641.486 442.262, 645.216 445.304 C 651.108 450.109, 656.563 452.778, 663.220 454.115 C 676.469 456.776, 686.678 452.023, 703.500 435.363 C 721.153 417.880, 813.017 327.897, 838.631 303 C 863.233 279.086, 865.047 276.597, 865.123 266.638 C 865.183 258.800, 862.596 252.907, 855.858 245.535 C 849.841 238.952, 845.852 237, 838.415 237 C 828.430 237, 826.230 238.656, 794 270.437 C 757.394 306.533, 686.262 375.959, 679.396 382.292 C 676.589 384.881, 674.016 387, 673.679 387 C 673.341 387, 671.189 384.516, 668.896 381.479 C 664.773 376.018, 664.748 375.935, 666.614 373.850 C 669.210 370.950, 713.398 327.334, 742.500 298.946 C 796.968 245.817, 811.062 231.500, 813.162 227.164 C 817.225 218.774, 815.229 206.757, 808.246 197.573 C 803.083 190.781, 797.493 187.994, 789.093 188.022 C 778.893 188.056, 775.805 189.994, 757.645 207.761 C 748.797 216.418, 731.423 233.400, 719.037 245.500 C 700.767 263.346, 663.624 299.715, 644.992 318 C 643.030 319.925, 637.814 324.983, 633.400 329.241 L 625.376 336.981 621.214 332.861 C 615.791 327.491, 615.168 325.416, 618.155 322.670 C 619.445 321.484, 646.150 295.337, 677.500 264.565 C 708.850 233.792, 740.499 202.739, 747.830 195.558 C 763.844 179.871, 766.492 175.891, 766.494 167.500 C 766.496 162.816, 765.839 160.202, 763.499 155.581 C 759.807 148.289, 752.645 140.168, 748.310 138.356 C 743.755 136.453, 735.251 136.700, 730.500 138.874 M 302.101 164.642 C 295.317 169.394, 282.320 208.056, 277.104 239 C 271.287 273.515, 271.860 316.792, 278.574 350 C 289.264 402.870, 308.081 448.342, 338.784 495.500 C 375.908 552.521, 434.177 612.280, 502.319 663.218 C 514.799 672.547, 537.643 688.028, 538.835 687.965 C 541.324 687.832, 546.145 683.045, 561.028 665.929 C 580.786 643.206, 580.719 643.374, 572.796 636.207 C 518.275 586.890, 487.459 555.787, 452 514.287 C 412.823 468.435, 391.940 438.828, 375.186 405.387 C 370.097 395.230, 361 373.512, 361 371.521 C 361 370.409, 367.731 366.371, 368.388 367.089 C 368.594 367.315, 371.808 373.350, 375.530 380.500 C 399.720 426.975, 427.799 469.069, 466.500 516.874 C 499.451 557.577, 558.900 615.516, 598.685 645.703 L 609.869 654.189 607.777 658.203 C 603.593 666.231, 604.494 677.608, 610.234 689.219 C 615.535 699.944, 629.063 712.315, 647.351 723.161 C 653.659 726.902, 654.791 729.169, 656.024 740.530 C 658.166 760.267, 663.081 775.349, 671.426 787.786 C 679.250 799.447, 690.481 808.791, 701.731 813.001 C 708.985 815.715, 725.161 824.012, 732.709 828.890 C 742.209 835.030, 743.577 837.257, 744.325 847.796 C 746.765 882.167, 778.035 909.005, 806.992 901.582 C 819.988 898.250, 835.255 887.801, 858.068 866.626 C 878.866 847.321, 900.383 822.923, 920.683 795.628 C 933.981 777.747, 934.144 776.014, 922.891 772.128 C 911.918 768.338, 885.246 756.633, 867.749 747.929 C 801.250 714.850, 748.226 670.793, 715.586 621.500 C 711.580 615.450, 706.996 608.025, 705.401 605 C 700.956 596.572, 691.722 587.712, 684.500 584.945 C 676.111 581.732, 663.868 581.736, 655.500 584.955 C 646.972 588.236, 637.646 594.674, 629.121 603.166 C 620.270 611.982, 618.137 616.033, 620.470 619.595 C 623.324 623.950, 626.902 622.850, 633.036 615.728 C 640.669 606.867, 647.476 601.260, 655 597.633 C 660.816 594.830, 662.455 594.500, 670.578 594.500 C 678.941 594.500, 680.045 594.739, 684.578 597.535 C 688.482 599.942, 690.640 602.441, 695.015 609.619 C 720.456 651.362, 745.795 679.476, 786.020 710.589 C 815.722 733.563, 862.613 759.983, 901 775.372 C 908.975 778.569, 915.853 781.518, 916.284 781.926 C 917.597 783.169, 897.693 808.388, 878.343 830 C 852.418 858.954, 827.553 880.582, 811.393 888.235 C 805.397 891.075, 803.459 891.500, 796.500 891.500 C 789.679 891.500, 787.616 891.067, 782.500 888.564 C 775.906 885.337, 766.925 877.004, 762.493 870 C 758.383 863.506, 756.002 854.957, 755.990 846.661 C 755.979 838.223, 753.213 831.316, 747.872 826.388 C 740.234 819.339, 722.652 809.434, 704.500 801.953 C 697.802 799.192, 695.264 797.423, 688.903 791.078 C 682.806 784.997, 680.384 781.623, 676.643 774 C 671.361 763.238, 668.373 752.586, 667.458 741.255 C 666.080 724.182, 663.123 719.350, 648.942 710.985 C 636.886 703.875, 624.461 692.219, 619.984 683.819 C 615.480 675.369, 615.242 667.762, 619.257 660.624 C 623.094 653.803, 622.872 650.819, 618.250 647.077 C 616.188 645.407, 607.075 638.123, 598 630.889 C 542.254 586.452, 491.789 534.062, 447.360 474.500 C 423.932 443.092, 402.437 408.655, 382.446 370.500 C 372.364 351.256, 369.019 348.781, 362.246 355.554 C 358.431 359.369, 355.131 361.328, 350.750 362.379 C 346.407 363.420, 346.908 366.139, 355.477 388 C 372.263 430.825, 405.410 479.082, 460.570 541 C 484.237 567.567, 540.832 623.631, 560 639.497 C 562.475 641.546, 564.614 643.514, 564.753 643.871 C 564.893 644.227, 558.913 651.388, 551.465 659.783 L 537.923 675.046 531.212 670.340 C 509.189 654.899, 481.611 633.566, 463 617.577 C 446.666 603.545, 441.950 599.099, 420 577.042 C 363.090 519.855, 325.924 463.506, 303.465 400.357 C 278.417 329.928, 277.573 254.111, 301.134 190.998 C 303.392 184.949, 305.523 180.021, 305.870 180.046 C 306.216 180.071, 310.100 185.324, 314.500 191.721 C 327.996 211.340, 358.313 253.820, 375.004 276.500 C 377.028 279.250, 381.793 285.747, 385.592 290.938 C 407.014 320.208, 447.185 373.522, 464.753 396 C 466.258 397.925, 471.523 404.675, 476.452 411 C 533.367 484.021, 577.819 535.199, 610 564.755 C 624.392 577.973, 629.847 582, 633.359 582 C 637.576 582, 640.411 577.599, 638.235 574.430 C 637.831 573.842, 634.800 571.385, 631.500 568.972 C 612.239 554.884, 565.036 504.150, 525 454.505 C 519.775 448.025, 512.125 438.576, 508 433.505 C 501.173 425.113, 481.801 400.426, 468.040 382.581 C 425.030 326.808, 355.788 232.374, 318.531 178.679 C 310.699 167.391, 306.909 163, 305 163 C 304.695 163, 303.390 163.739, 302.101 164.642 M 303 226 C 301.900 227.100, 300.994 228.338, 300.988 228.750 C 300.981 229.162, 300.315 236.250, 299.508 244.500 C 297.780 262.164, 297.584 287.855, 299.054 304 C 302.414 340.922, 312.879 382.070, 328.653 420.382 C 333.775 432.824, 346.310 458.344, 351.796 467.500 C 363.828 487.582, 367.027 492.628, 374.304 503 C 391.757 527.875, 406.864 545.811, 431.466 570.866 C 460.996 600.940, 491.228 626.602, 523.304 648.823 C 535.102 656.996, 539.097 658.503, 541.800 655.800 C 543.803 653.797, 543.226 649.251, 540.750 647.529 C 480.211 605.450, 438.749 567.771, 401.234 520.744 C 334.283 436.818, 300.899 334.631, 310.700 243.625 L 312.409 227.750 310.094 225.875 C 307.137 223.481, 305.490 223.510, 303 226 M 353.761 552.250 C 346.839 557.759, 345.329 558.756, 322 573.203 C 290.971 592.420, 269.958 608.866, 246.974 631.926 C 205.327 673.711, 181.048 718.261, 173.361 767 C 171.028 781.788, 171.070 812.103, 173.440 825.500 C 176.312 841.729, 181.571 858.422, 187.279 869.431 C 194.052 882.493, 204.965 893.974, 215.477 899.099 C 222.187 902.370, 222.897 902.500, 233.977 902.489 C 243.420 902.481, 246.566 902.078, 251.408 900.260 C 278.127 890.223, 303.220 860.289, 319.411 819.136 C 321.437 813.986, 325.505 800.486, 328.451 789.136 C 331.397 777.786, 334.913 765.575, 336.265 762 C 346.117 735.942, 369.641 702.598, 409.712 657.893 C 415.328 651.627, 423.760 642.225, 428.450 637 C 437.257 627.188, 438.400 624.577, 435.171 621.655 C 431.469 618.304, 429.704 619.543, 414.371 636.250 C 381.685 671.867, 363.813 693.696, 348.384 716.849 C 330.842 743.170, 326.305 753.266, 318.431 783.500 C 311.797 808.973, 308.236 819.183, 301.177 832.965 C 287.482 859.704, 270.960 878.366, 253.078 887.295 C 244.857 891.400, 244.416 891.500, 234.578 891.500 C 223.241 891.500, 218.817 889.959, 211.042 883.304 C 193.108 867.953, 180.729 827.883, 182.373 790.500 C 184.687 737.865, 205.475 692.798, 249.181 645.661 C 272.251 620.781, 297.281 601.438, 342.555 573.500 C 365.094 559.591, 371.138 553.281, 366.429 548.571 C 363.748 545.891, 360.603 546.804, 353.761 552.250 M 342.901 595.342 C 325.370 602.997, 298.760 618.846, 280.516 632.500 C 246.252 658.143, 215.844 698.173, 203.035 734.500 C 196.275 753.670, 192.978 775.072, 192.913 800.199 C 192.849 824.997, 196.535 837.859, 206.980 849.288 C 217.086 860.346, 228.715 862.981, 240.787 856.949 C 252.147 851.272, 259.764 840.431, 265.388 821.934 C 270.396 805.460, 270.691 795.036, 266.336 788.390 C 264.142 785.042, 257.139 782, 251.627 782 C 243.177 782, 238.087 780.090, 232.700 774.898 L 227.743 770.120 228.236 761.810 C 228.507 757.239, 229.495 751.250, 230.433 748.500 C 234.348 737.019, 246.535 714.413, 258.386 696.652 C 291.761 646.629, 323.803 614.504, 350.297 604.503 C 356.958 601.989, 359.103 597.214, 355.171 593.655 C 352.669 591.391, 351.621 591.535, 342.901 595.342 M 667.223 629.557 C 662.756 632.685, 664.109 635.837, 676.307 650.712 C 682.527 658.295, 689.483 666.975, 691.766 670 C 694.049 673.025, 701.128 682.250, 707.498 690.500 C 745.376 739.559, 773.074 778.994, 780.507 794.447 C 787.012 807.973, 788.939 823.621, 787.015 847.318 C 785.884 861.255, 785.922 862.256, 787.651 864.167 C 790.478 867.291, 795.548 866.047, 810.424 858.581 C 844.893 841.280, 870.247 814.047, 863.690 801.367 C 861.596 797.317, 849.502 785.909, 812.500 753.078 C 794.900 737.461, 773.300 718.285, 764.500 710.464 C 755.700 702.642, 743.775 692.077, 738 686.985 C 732.225 681.893, 725.923 676.326, 723.997 674.613 C 722.070 672.901, 713.070 665.006, 703.997 657.068 C 694.923 649.130, 684.064 639.343, 679.865 635.318 C 675.665 631.293, 671.603 628, 670.837 628 C 670.072 628, 668.445 628.701, 667.223 629.557 M 270.606 655.155 C 241.972 682.030, 220.423 714.493, 211.634 744 C 203.144 772.503, 201.107 809.692, 207.053 827.635 C 211.100 839.844, 220.259 849.008, 228.400 848.992 C 236.301 848.976, 244.956 841.882, 250.590 830.805 C 253.695 824.699, 258.052 807.963, 258.303 801.172 C 258.553 794.399, 257.364 793.467, 247.517 792.723 C 242.623 792.353, 238.111 791.282, 234.524 789.640 C 227.124 786.252, 219.486 778.518, 217.962 772.868 C 216.311 766.749, 217.294 752.886, 219.939 745 C 226.512 725.398, 249.751 686.664, 271.435 659.165 C 276.785 652.380, 280.979 646.646, 280.755 646.421 C 280.530 646.197, 275.964 650.127, 270.606 655.155 M 715 681.293 C 715 681.628, 723.438 693.075, 733.750 706.731 C 757.493 738.171, 762.377 744.953, 774.963 763.972 C 795.181 794.520, 798.317 803.777, 798.429 833.238 C 798.511 854.800, 797.517 853.489, 809 847.194 C 825.596 838.097, 841.377 825.569, 848.600 815.757 C 854.152 808.215, 854.271 805.487, 849.250 800.884 C 842.686 794.869, 807.758 763.495, 800.822 757.384 C 797.148 754.148, 786.112 744.300, 776.297 735.500 C 766.482 726.700, 751.504 713.425, 743.012 706 C 734.520 698.575, 724.743 689.841, 721.286 686.591 C 717.829 683.342, 715 680.957, 715 681.293" stroke="none" fill="#d1d6e5" fill-rule="evenodd"/><path d="M 0 512.001 L 0 1024.002 512.250 1023.751 L 1024.500 1023.500 1024.751 511.750 L 1025.002 0 512.501 0 L 0 0 0 512.001 M 0.496 512.500 C 0.496 794.100, 0.610 909.151, 0.750 768.168 C 0.890 627.186, 0.890 396.786, 0.750 256.168 C 0.610 115.551, 0.496 230.900, 0.496 512.500 M 730.500 138.874 C 724.445 141.644, 720.095 145.598, 686.500 178.865 C 669.450 195.749, 635.933 228.674, 612.017 252.031 C 588.102 275.389, 567.217 295.850, 565.606 297.500 C 550.146 313.339, 552.180 333.864, 571.433 356.328 C 575.595 361.183, 579 365.306, 579 365.491 C 579 365.675, 565.612 377.002, 549.250 390.662 C 514.458 419.708, 515 419.208, 515 422.300 C 515 427.974, 521.505 429.447, 526.335 424.866 C 529.167 422.181, 555.539 399.914, 563.485 393.500 C 581.124 379.259, 591.145 370.269, 591.659 368.224 C 592.352 365.460, 590.229 362.115, 579.137 348.500 C 569.862 337.115, 566.791 330.490, 566.619 321.500 C 566.530 316.862, 567.021 314.669, 568.779 311.839 C 570.029 309.826, 593.428 286.216, 620.776 259.373 C 648.124 232.531, 684 197.190, 700.500 180.838 C 730.857 150.753, 734.261 148, 741.100 148 C 745.047 148, 749.708 152.659, 753.486 160.382 C 757.973 169.552, 757.554 170.235, 732.249 195.028 C 720.287 206.748, 687.567 238.874, 659.539 266.418 C 631.510 293.963, 607.547 317.492, 606.289 318.705 C 605.030 319.917, 604 321.983, 604 323.295 C 604 327.826, 609.896 337.688, 615.963 343.305 C 621.987 348.882, 625.909 350.710, 628.609 349.199 C 629.452 348.727, 638.998 339.570, 649.821 328.850 C 665.876 312.948, 759.564 221.090, 774.500 206.606 C 780.380 200.904, 783.946 199.008, 788.800 199.004 C 795.226 198.998, 798.767 201.303, 801.566 207.315 C 804.422 213.448, 804.671 219.372, 802.250 223.551 C 800.714 226.202, 758.899 267.536, 676.741 347.615 C 659.222 364.692, 652 372.373, 652 373.931 C 652 376.635, 653.200 378.935, 657.659 384.776 C 664.956 394.336, 668.439 398.176, 671.029 399.515 C 673.377 400.729, 674.095 400.690, 676.772 399.201 C 679.485 397.692, 707.075 371.002, 783.500 295.952 C 816.782 263.269, 828.851 251.739, 831.849 249.761 C 833.357 248.767, 836.399 248.010, 838.905 248.007 C 842.717 248.001, 843.801 248.517, 846.967 251.845 C 853.621 258.840, 855.746 266.766, 852.585 272.800 C 851.807 274.285, 846.070 280.458, 839.835 286.517 C 808.866 316.616, 733.747 390.160, 712.500 411.183 C 699.300 424.243, 686.925 436.118, 685 437.571 C 679.567 441.671, 675.235 443.148, 668.529 443.187 C 660.917 443.231, 655.953 440.902, 648.866 433.963 C 641.855 427.098, 640.557 427.286, 629.420 436.769 C 624.426 441.021, 608.788 454.309, 594.670 466.298 C 568.034 488.916, 567.091 490.006, 570.328 494.434 C 572.167 496.949, 576.307 496.704, 579.789 493.875 C 581.396 492.569, 595.039 480.924, 610.106 467.999 C 625.173 455.073, 638.272 443.893, 639.216 443.154 C 640.711 441.984, 641.486 442.262, 645.216 445.304 C 651.108 450.109, 656.563 452.778, 663.220 454.115 C 676.469 456.776, 686.678 452.023, 703.500 435.363 C 721.153 417.880, 813.017 327.897, 838.631 303 C 863.233 279.086, 865.047 276.597, 865.123 266.638 C 865.183 258.800, 862.596 252.907, 855.858 245.535 C 849.841 238.952, 845.852 237, 838.415 237 C 828.430 237, 826.230 238.656, 794 270.437 C 757.394 306.533, 686.262 375.959, 679.396 382.292 C 676.589 384.881, 674.016 387, 673.679 387 C 673.341 387, 671.189 384.516, 668.896 381.479 C 664.773 376.018, 664.748 375.935, 666.614 373.850 C 669.210 370.950, 713.398 327.334, 742.500 298.946 C 796.968 245.817, 811.062 231.500, 813.162 227.164 C 817.225 218.774, 815.229 206.757, 808.246 197.573 C 803.083 190.781, 797.493 187.994, 789.093 188.022 C 778.893 188.056, 775.805 189.994, 757.645 207.761 C 748.797 216.418, 731.423 233.400, 719.037 245.500 C 700.767 263.346, 663.624 299.715, 644.992 318 C 643.030 319.925, 637.814 324.983, 633.400 329.241 L 625.376 336.981 621.214 332.861 C 615.791 327.491, 615.168 325.416, 618.155 322.670 C 619.445 321.484, 646.150 295.337, 677.500 264.565 C 708.850 233.792, 740.499 202.739, 747.830 195.558 C 763.844 179.871, 766.492 175.891, 766.494 167.500 C 766.496 162.816, 765.839 160.202, 763.499 155.581 C 759.807 148.289, 752.645 140.168, 748.310 138.356 C 743.755 136.453, 735.251 136.700, 730.500 138.874 M 302.101 164.642 C 295.317 169.394, 282.320 208.056, 277.104 239 C 271.287 273.515, 271.860 316.792, 278.574 350 C 289.264 402.870, 308.081 448.342, 338.784 495.500 C 375.908 552.521, 434.177 612.280, 502.319 663.218 C 514.799 672.547, 537.643 688.028, 538.835 687.965 C 541.324 687.832, 546.145 683.045, 561.028 665.929 C 580.786 643.206, 580.719 643.374, 572.796 636.207 C 518.275 586.890, 487.459 555.787, 452 514.287 C 412.823 468.435, 391.940 438.828, 375.186 405.387 C 370.097 395.230, 361 373.512, 361 371.521 C 361 370.409, 367.731 366.371, 368.388 367.089 C 368.594 367.315, 371.808 373.350, 375.530 380.500 C 399.720 426.975, 427.799 469.069, 466.500 516.874 C 499.451 557.577, 558.900 615.516, 598.685 645.703 L 609.869 654.189 607.777 658.203 C 603.593 666.231, 604.494 677.608, 610.234 689.219 C 615.535 699.944, 629.063 712.315, 647.351 723.161 C 653.659 726.902, 654.791 729.169, 656.024 740.530 C 658.166 760.267, 663.081 775.349, 671.426 787.786 C 679.250 799.447, 690.481 808.791, 701.731 813.001 C 708.985 815.715, 725.161 824.012, 732.709 828.890 C 742.209 835.030, 743.577 837.257, 744.325 847.796 C 746.765 882.167, 778.035 909.005, 806.992 901.582 C 819.988 898.250, 835.255 887.801, 858.068 866.626 C 878.866 847.321, 900.383 822.923, 920.683 795.628 C 933.981 777.747, 934.144 776.014, 922.891 772.128 C 911.918 768.338, 885.246 756.633, 867.749 747.929 C 801.250 714.850, 748.226 670.793, 715.586 621.500 C 711.580 615.450, 706.996 608.025, 705.401 605 C 700.956 596.572, 691.722 587.712, 684.500 584.945 C 676.111 581.732, 663.868 581.736, 655.500 584.955 C 646.972 588.236, 637.646 594.674, 629.121 603.166 C 620.270 611.982, 618.137 616.033, 620.470 619.595 C 623.324 623.950, 626.902 622.850, 633.036 615.728 C 640.669 606.867, 647.476 601.260, 655 597.633 C 660.816 594.830, 662.455 594.500, 670.578 594.500 C 678.941 594.500, 680.045 594.739, 684.578 597.535 C 688.482 599.942, 690.640 602.441, 695.015 609.619 C 720.456 651.362, 745.795 679.476, 786.020 710.589 C 815.722 733.563, 862.613 759.983, 901 775.372 C 908.975 778.569, 915.853 781.518, 916.284 781.926 C 917.597 783.169, 897.693 808.388, 878.343 830 C 852.418 858.954, 827.553 880.582, 811.393 888.235 C 805.397 891.075, 803.459 891.500, 796.500 891.500 C 789.679 891.500, 787.616 891.067, 782.500 888.564 C 775.906 885.337, 766.925 877.004, 762.493 870 C 758.383 863.506, 756.002 854.957, 755.990 846.661 C 755.979 838.223, 753.213 831.316, 747.872 826.388 C 740.234 819.339, 722.652 809.434, 704.500 801.953 C 697.802 799.192, 695.264 797.423, 688.903 791.078 C 682.806 784.997, 680.384 781.623, 676.643 774 C 671.361 763.238, 668.373 752.586, 667.458 741.255 C 666.080 724.182, 663.123 719.350, 648.942 710.985 C 636.886 703.875, 624.461 692.219, 619.984 683.819 C 615.480 675.369, 615.242 667.762, 619.257 660.624 C 623.094 653.803, 622.872 650.819, 618.250 647.077 C 616.188 645.407, 607.075 638.123, 598 630.889 C 542.254 586.452, 491.789 534.062, 447.360 474.500 C 423.932 443.092, 402.437 408.655, 382.446 370.500 C 372.364 351.256, 369.019 348.781, 362.246 355.554 C 358.431 359.369, 355.131 361.328, 350.750 362.379 C 346.407 363.420, 346.908 366.139, 355.477 388 C 372.263 430.825, 405.410 479.082, 460.570 541 C 484.237 567.567, 540.832 623.631, 560 639.497 C 562.475 641.546, 564.614 643.514, 564.753 643.871 C 564.893 644.227, 558.913 651.388, 551.465 659.783 L 537.923 675.046 531.212 670.340 C 509.189 654.899, 481.611 633.566, 463 617.577 C 446.666 603.545, 441.950 599.099, 420 577.042 C 363.090 519.855, 325.924 463.506, 303.465 400.357 C 278.417 329.928, 277.573 254.111, 301.134 190.998 C 303.392 184.949, 305.523 180.021, 305.870 180.046 C 306.216 180.071, 310.100 185.324, 314.500 191.721 C 327.996 211.340, 358.313 253.820, 375.004 276.500 C 377.028 279.250, 381.793 285.747, 385.592 290.938 C 407.014 320.208, 447.185 373.522, 464.753 396 C 466.258 397.925, 471.523 404.675, 476.452 411 C 533.367 484.021, 577.819 535.199, 610 564.755 C 624.392 577.973, 629.847 582, 633.359 582 C 637.576 582, 640.411 577.599, 638.235 574.430 C 637.831 573.842, 634.800 571.385, 631.500 568.972 C 612.239 554.884, 565.036 504.150, 525 454.505 C 519.775 448.025, 512.125 438.576, 508 433.505 C 501.173 425.113, 481.801 400.426, 468.040 382.581 C 425.030 326.808, 355.788 232.374, 318.531 178.679 C 310.699 167.391, 306.909 163, 305 163 C 304.695 163, 303.390 163.739, 302.101 164.642 M 303 226 C 301.900 227.100, 300.994 228.338, 300.988 228.750 C 300.981 229.162, 300.315 236.250, 299.508 244.500 C 297.780 262.164, 297.584 287.855, 299.054 304 C 302.414 340.922, 312.879 382.070, 328.653 420.382 C 333.775 432.824, 346.310 458.344, 351.796 467.500 C 363.828 487.582, 367.027 492.628, 374.304 503 C 391.757 527.875, 406.864 545.811, 431.466 570.866 C 460.996 600.940, 491.228 626.602, 523.304 648.823 C 535.102 656.996, 539.097 658.503, 541.800 655.800 C 543.803 653.797, 543.226 649.251, 540.750 647.529 C 480.211 605.450, 438.749 567.771, 401.234 520.744 C 334.283 436.818, 300.899 334.631, 310.700 243.625 L 312.409 227.750 310.094 225.875 C 307.137 223.481, 305.490 223.510, 303 226 M 353.761 552.250 C 346.839 557.759, 345.329 558.756, 322 573.203 C 290.971 592.420, 269.958 608.866, 246.974 631.926 C 205.327 673.711, 181.048 718.261, 173.361 767 C 171.028 781.788, 171.070 812.103, 173.440 825.500 C 176.312 841.729, 181.571 858.422, 187.279 869.431 C 194.052 882.493, 204.965 893.974, 215.477 899.099 C 222.187 902.370, 222.897 902.500, 233.977 902.489 C 243.420 902.481, 246.566 902.078, 251.408 900.260 C 278.127 890.223, 303.220 860.289, 319.411 819.136 C 321.437 813.986, 325.505 800.486, 328.451 789.136 C 331.397 777.786, 334.913 765.575, 336.265 762 C 346.117 735.942, 369.641 702.598, 409.712 657.893 C 415.328 651.627, 423.760 642.225, 428.450 637 C 437.257 627.188, 438.400 624.577, 435.171 621.655 C 431.469 618.304, 429.704 619.543, 414.371 636.250 C 381.685 671.867, 363.813 693.696, 348.384 716.849 C 330.842 743.170, 326.305 753.266, 318.431 783.500 C 311.797 808.973, 308.236 819.183, 301.177 832.965 C 287.482 859.704, 270.960 878.366, 253.078 887.295 C 244.857 891.400, 244.416 891.500, 234.578 891.500 C 223.241 891.500, 218.817 889.959, 211.042 883.304 C 193.108 867.953, 180.729 827.883, 182.373 790.500 C 184.687 737.865, 205.475 692.798, 249.181 645.661 C 272.251 620.781, 297.281 601.438, 342.555 573.500 C 365.094 559.591, 371.138 553.281, 366.429 548.571 C 363.748 545.891, 360.603 546.804, 353.761 552.250 M 342.901 595.342 C 325.370 602.997, 298.760 618.846, 280.516 632.500 C 246.252 658.143, 215.844 698.173, 203.035 734.500 C 196.275 753.670, 192.978 775.072, 192.913 800.199 C 192.849 824.997, 196.535 837.859, 206.980 849.288 C 217.086 860.346, 228.715 862.981, 240.787 856.949 C 252.147 851.272, 259.764 840.431, 265.388 821.934 C 270.396 805.460, 270.691 795.036, 266.336 788.390 C 264.142 785.042, 257.139 782, 251.627 782 C 243.177 782, 238.087 780.090, 232.700 774.898 L 227.743 770.120 228.236 761.810 C 228.507 757.239, 229.495 751.250, 230.433 748.500 C 234.348 737.019, 246.535 714.413, 258.386 696.652 C 291.761 646.629, 323.803 614.504, 350.297 604.503 C 356.958 601.989, 359.103 597.214, 355.171 593.655 C 352.669 591.391, 351.621 591.535, 342.901 595.342 M 667.223 629.557 C 662.756 632.685, 664.109 635.837, 676.307 650.712 C 682.527 658.295, 689.483 666.975, 691.766 670 C 694.049 673.025, 701.128 682.250, 707.498 690.500 C 745.376 739.559, 773.074 778.994, 780.507 794.447 C 787.012 807.973, 788.939 823.621, 787.015 847.318 C 785.884 861.255, 785.922 862.256, 787.651 864.167 C 790.478 867.291, 795.548 866.047, 810.424 858.581 C 844.893 841.280, 870.247 814.047, 863.690 801.367 C 861.596 797.317, 849.502 785.909, 812.500 753.078 C 794.900 737.461, 773.300 718.285, 764.500 710.464 C 755.700 702.642, 743.775 692.077, 738 686.985 C 732.225 681.893, 725.923 676.326, 723.997 674.613 C 722.070 672.901, 713.070 665.006, 703.997 657.068 C 694.923 649.130, 684.064 639.343, 679.865 635.318 C 675.665 631.293, 671.603 628, 670.837 628 C 670.072 628, 668.445 628.701, 667.223 629.557 M 270.606 655.155 C 241.972 682.030, 220.423 714.493, 211.634 744 C 203.144 772.503, 201.107 809.692, 207.053 827.635 C 211.100 839.844, 220.259 849.008, 228.400 848.992 C 236.301 848.976, 244.956 841.882, 250.590 830.805 C 253.695 824.699, 258.052 807.963, 258.303 801.172 C 258.553 794.399, 257.364 793.467, 247.517 792.723 C 242.623 792.353, 238.111 791.282, 234.524 789.640 C 227.124 786.252, 219.486 778.518, 217.962 772.868 C 216.311 766.749, 217.294 752.886, 219.939 745 C 226.512 725.398, 249.751 686.664, 271.435 659.165 C 276.785 652.380, 280.979 646.646, 280.755 646.421 C 280.530 646.197, 275.964 650.127, 270.606 655.155 M 715 681.293 C 715 681.628, 723.438 693.075, 733.750 706.731 C 757.493 738.171, 762.377 744.953, 774.963 763.972 C 795.181 794.520, 798.317 803.777, 798.429 833.238 C 798.511 854.800, 797.517 853.489, 809 847.194 C 825.596 838.097, 841.377 825.569, 848.600 815.757 C 854.152 808.215, 854.271 805.487, 849.250 800.884 C 842.686 794.869, 807.758 763.495, 800.822 757.384 C 797.148 754.148, 786.112 744.300, 776.297 735.500 C 766.482 726.700, 751.504 713.425, 743.012 706 C 734.520 698.575, 724.743 689.841, 721.286 686.591 C 717.829 683.342, 715 680.957, 715 681.293" stroke="none" fill="#192b68" fill-rule="evenodd"/></svg>